<svg xmlns="http://www.w3.org/2000/svg" enable-background="new 0 0 24 24" viewBox="0 0 24 24"><polygon fill="#444" points=".981 14.471 0 19.232 9.635 23.25 20.8 19.232 24 .751 24 .75 3.63 .75 2.814 4.868 19.485 4.868 18.96 7.515 2.276 7.515 1.476 11.633 18.146 11.633 17.205 16.51 10.5 18.739 4.681 16.51 5.08 14.471 .981 14.471"/><polygon fill="#5C5C5C" points="24 .75 13.273 .75 12.607 4.868 19.485 4.868 18.96 7.515 12.179 7.515 11.513 11.633 18.146 11.633 17.205 16.51 10.5 18.739 10.372 18.69 9.635 23.25 9.635 23.25 20.8 19.232 24 .751 24 .75"/></svg>