<svg xmlns="http://www.w3.org/2000/svg" xmlns:svgjs="http://svgjs.com/svgjs" xmlns:xlink="http://www.w3.org/1999/xlink" width="288" height="288"><svg xmlns="http://www.w3.org/2000/svg" width="288" height="288" viewBox="0 0 24 24"><path fill="#3d6fbd" d="M6 19a.5.5 0 0 1-.493-.418l-.64-3.84L3.73 18.64c-.124.428-.836.428-.96 0l-1.137-3.897-.64 3.84a.5.5 0 1 1-.986-.164l1-6a.5.5 0 0 1 .463-.417.489.489 0 0 1 .51.359l1.27 4.354 1.27-4.354a.488.488 0 0 1 .51-.359.5.5 0 0 1 .463.417l1 6A.5.5 0 0 1 6 19zm2.197 0a.5.5 0 0 1-.473-.338l-1.197-3.5a.5.5 0 1 1 .947-.324l1.197 3.5a.5.5 0 0 1-.474.662z" class="color000 svgShape"/><path fill="#3d6fbd" d="M6 20.5a.5.5 0 0 1 0-1c2.468 0 2.998-4.51 3.003-4.556a.509.509 0 0 1 .552-.441c.274.03.472.278.442.553C9.972 15.277 9.353 20.5 6 20.5zm6.504-1.5H11a.5.5 0 0 1 0-1h1.504c.549 0 .996-.447.996-.996s-.447-.996-.996-.996a2 2 0 0 1-2.004-1.996c0-1.116.896-2.012 1.996-2.012H14a.5.5 0 0 1 0 1h-1.504a.997.997 0 0 0-.996.996c0 .564.447 1.012.996 1.012a2 2 0 0 1 2.004 1.996c0 1.1-.896 1.996-1.996 1.996zm4.996 0c-1.402 0-2.5-1.537-2.5-3.5s1.098-3.5 2.5-3.5 2.5 1.537 2.5 3.5-1.098 3.5-2.5 3.5zm0-6c-.813 0-1.5 1.145-1.5 2.5s.687 2.5 1.5 2.5 1.5-1.145 1.5-2.5-.687-2.5-1.5-2.5z" class="color000 svgShape"/><path fill="#3d6fbd" d="M19.5 19a.502.502 0 0 1-.354-.146l-1.391-1.391a.5.5 0 0 1 .707-.707l1.391 1.391A.5.5 0 0 1 19.5 19zm4 0H21a.5.5 0 0 1-.5-.5v-6a.5.5 0 0 1 1 0V18h2a.5.5 0 0 1 0 1zM16.197 4.418a.546.546 0 0 1-.407-.184.838.838 0 0 1-.054-.077c-.291.049-.605-.185-.605-.492 0-.233.161-.448.388-.5.095-.021.204-.042.353-.045a.483.483 0 0 1 .382.138c.064.04.179.116.261.253l.06.108c.182.208.145.503-.063.684a.477.477 0 0 1-.315.115zm-.566-.766h.01-.01z" class="color000 svgShape"/><path fill="#3d6fbd" d="M23.512 11.955a.513.513 0 0 1-.405-.195.876.876 0 0 1-.125-.229l-.138-.124a2.96 2.96 0 0 0-.632-.608c-.035-.023-.095-.057-.16-.094-.285-.161-.636-.36-.776-.69a.51.51 0 0 1-.018-.396.497.497 0 0 1 .417-.325c.104-.009.225-.047.328-.075.073-.02.138-.034.198-.045a7.896 7.896 0 0 0-.731-.51c-.11-.069-.232-.118-.352-.169a4.7 4.7 0 0 1-.311-.141c-.134-.042-.319-.104-.445-.286-.104-.12-.185-.294-.256-.447l-.056-.118c-.191-.36-.385-.771-.557-1.165-.042-.09-.083-.191-.124-.292-.054-.135-.104-.268-.183-.393-.619-1.002-1.295-1.643-2.411-2.285-.154-.086-.373-.136-.626-.193l-.503-.037a.49.49 0 0 1-.169-.038 1.177 1.177 0 0 1-.326-.22c-.544-.35-.891-.408-.966-.371-.03.075.054.22.243.451.045.056.085.106.117.149.163.208.294.376.385.567.043.104.066.184.087.266.01.037.019.076.034.115l.076.212c.075.212.151.431.25.621.059.111.124.23.201.333a.725.725 0 0 1 .261.438.502.502 0 0 1-.083.376 2.612 2.612 0 0 0-.029.128 2.129 2.129 0 0 1-.06.232c-.188.583-.126 1.353.144 1.787l.051.074.003-.022c.015-.114.031-.233.061-.348a.671.671 0 0 1 .137-.363.5.5 0 0 1 .871.153l.038.074c.073.143.146.282.213.428.113.167.405.46.712.688.069.051.137.114.204.182a.475.475 0 0 1 .139.082c.05.037.105.077.159.13a.494.494 0 0 1 .187.383.52.52 0 0 1-.214.42.504.504 0 0 1-.458.069c-.23-.085-.387-.243-.501-.358-.036-.036-.071-.074-.109-.103a5.042 5.042 0 0 1-.686-.618.874.874 0 0 1-.349.245c-.269.109-.804.183-1.303-.577-.43-.691-.531-1.771-.252-2.637.015-.045.023-.088.032-.131.009-.041.018-.085.03-.131v-.001a3.473 3.473 0 0 1-.288-.47 5.93 5.93 0 0 1-.306-.751l-.068-.191a1.685 1.685 0 0 1-.067-.221c-.01-.037-.018-.074-.033-.111a2.342 2.342 0 0 0-.211-.294 5.717 5.717 0 0 0-.063-.081l-.09-.113c-.215-.266-.664-.816-.397-1.448a.994.994 0 0 1 .626-.588c.573-.184 1.263.132 1.742.428.061.038.122.088.183.141l-.005.021.393.021c.029.001.15.025.179.032.301.068.612.14.897.299 1.28.737 2.054 1.473 2.768 2.628.109.174.186.358.261.547.034.084.067.169.107.253.167.382.349.77.535 1.12l.074.155c.035.076.068.149.102.204a1.2 1.2 0 0 1 .136.055c.085.043.17.078.255.114.17.072.34.146.489.239.379.232.772.52 1.162.851.097.086.175.183.251.28.035.045.069.092.108.131a.497.497 0 0 1 .151.357c0 .219-.143.472-.352.537a6.497 6.497 0 0 1-.348.1l-.047.011c.264.204.488.428.672.67l.152.135c.024.023.046.05.064.077.051.075.08.147.1.195a.493.493 0 0 1-.093.695.482.482 0 0 1-.303.104zM21.14 7.441l.015.02-.015-.02z" class="color000 svgShape"/></svg></svg>