<svg xmlns="http://www.w3.org/2000/svg" enable-background="new 0 0 24 24" viewBox="0 0 24 24"><path fill="#8CC03E" d="M2.156,6.906v10.185c0,0.379,0.202,0.731,0.529,0.921l8.787,5.095c0.328,0.19,0.731,0.19,1.06,0l8.783-5.094c0.328-0.192,0.529-0.542,0.53-0.921V6.906c0-0.379-0.203-0.731-0.531-0.922l-8.781-5.091c-0.328-0.19-0.733-0.19-1.06,0l-0.002,0.001L2.684,5.984C2.356,6.175,2.155,6.526,2.156,6.906z"/><path d="M12.002,23.999c-0.313,0-0.626-0.081-0.904-0.244l-8.703-5.096C1.843,18.336,1.5,17.734,1.5,17.091V6.908c-0.002-0.645,0.341-1.246,0.893-1.57l8.704-5.092c0.558-0.327,1.25-0.328,1.81-0.001l8.697,5.091c0.554,0.326,0.896,0.928,0.896,1.57v10.187c-0.002,0.643-0.344,1.241-0.893,1.566l-8.702,5.096C12.627,23.918,12.314,23.999,12.002,23.999z M12.002,1.5c-0.05,0-0.1,0.013-0.144,0.039L3.151,6.632C3.058,6.687,3,6.791,3,6.904c0,0.001,0,0.001,0,0.002v10.185c0,0.112,0.06,0.22,0.152,0.273l8.703,5.096c0.09,0.054,0.198,0.055,0.292,0l8.699-5.094C20.941,17.311,21,17.207,21,17.091V6.906c0-0.114-0.06-0.22-0.156-0.276l-8.695-5.09C12.103,1.514,12.052,1.5,12.002,1.5z"/></svg>